<svg width="17" height="17" viewBox="0 0 17 17" fill="none" xmlns="http://www.w3.org/2000/svg">
<g opacity="0.8">
<path fill-rule="evenodd" clip-rule="evenodd" d="M8.46515 16.3855C4.05317 16.3855 0.476562 12.8038 0.476562 8.3855C0.476562 3.96722 4.05317 0.385498 8.46515 0.385498C12.8771 0.385498 16.4537 3.96722 16.4537 8.3855C16.4537 12.8038 12.8771 16.3855 8.46515 16.3855ZM13.8389 12.1125C14.5718 11.0548 15.0013 9.7704 15.0013 8.38551C15.0013 4.77056 12.0749 1.84006 8.46515 1.84006C4.85535 1.84006 1.92903 4.77056 1.92903 8.38551C1.92903 9.7704 2.35851 11.0548 3.09137 12.1125C3.90775 11.0326 5.82484 10.5684 8.45588 10.5673C6.83416 10.563 5.56021 9.41886 5.56021 6.93096C5.56021 5.29879 6.70701 4.02187 8.46515 4.02187C10.2184 4.02187 11.3701 5.41938 11.3701 7.07642C11.3701 9.45699 10.081 10.5631 8.47448 10.5673C11.1055 10.5684 13.0226 11.0326 13.8389 12.1125ZM12.7969 13.2872C12.5844 12.5218 11.0574 12.0219 8.46515 12.0219C5.87292 12.0219 4.34592 12.5218 4.13339 13.2872C5.28663 14.31 6.80348 14.931 8.46515 14.931C10.1268 14.931 11.6437 14.31 12.7969 13.2872ZM7.01268 6.93097C7.01268 8.58134 7.60689 9.11279 8.46515 9.11279C9.32044 9.11279 9.91762 8.60253 9.91762 7.07643C9.91762 6.16764 9.348 5.47643 8.46515 5.47643C7.54555 5.47643 7.01268 6.06976 7.01268 6.93097Z" fill="white"/>
</g>
</svg>
